<svg height="512" viewBox="0 0 448 512" width="448" xmlns="http://www.w3.org/2000/svg"><path d="m48 32c-26.5 0-48 21.5-48 48v352c0 26.5 21.5 48 48 48h352c26.5 0 48-21.5 48-48v-352c0-26.5-21.5-48-48-48zm57.1543 160.55859c8.14463-.00001 10.07397.64212 21.43359 5.35743.64299.21438 1.28228.42773 1.71094.42773 1.07166 0 1.29027-.21502 3.43359-1.92969.21434-.21438.63918-.42773.85352-.42773 1.50033 0 2.14453 1.28647 2.14453 4.28711.21433 2.572.42945 3.2125 2.78711 17.78711.21438 1.71467.42773 3.21638.42773 3.85937 0 1.50033-.85556 2.57031-1.71289 2.57031-1.286 0-1.71544-.63903-2.78711-4.06835-4.07231-12.64562-18.64865-21.86524-34.294919-21.86524-13.07428 0-22.503907 8.3616-22.503907 19.93555 0 5.14398 1.715212 9.64202 5.144532 13.5 4.92965 5.3583 6.00281 6.00515 27.650394 13.07812 21.64758 7.07297 32.15039 18.64577 32.15039 34.72071 0 21.86191-17.57833 37.50781-42.226566 37.50781-9.85929 0-23.145504-3.21521-27.646484-6.64453-1.71466-1.50033-1.928854-1.71653-3.214844-8.14649 0-.42867-.856588-3.42675-2.142578-7.92773-1.50033-4.71531-2.361328-9.64668-2.361328-11.36133 0-1.50033.858028-2.57031 1.929688-2.57031.85734 0 1.288126.64122 1.716796 1.71289 2.78631 8.14463 6.001487 13.50149 10.716797 18.21679 6.21565 6.21566 16.288634 10.07618 25.933599 10.07618 15.86059 0 28.7207-10.93065 28.7207-24.4336 0-6.64431-3.21447-12.86034-8.78711-17.36132-3.21499-2.35767-6.217-3.85746-21.86328-8.78711-15.003262-5.14398-21.432286-8.57343-27.433596-14.78907-5.35831-5.57265-8.146485-12.434-8.146485-20.79297 0-18.64692 15.647948-31.93164 38.367191-31.93164zm70.08593.42774c7.9303 0 10.07346.42778 21.21875 5.35742.85733.21439 1.28814.42773 1.7168.42773 1.07166 0 1.28443-.21113 3.42774-1.92578.21434-.21434.4307-.43164.85937-.43164 1.50032 0 2.14258 1.28646 2.14258 4.28711.21433 2.57199.42554 3.2164 2.7832 17.79102.21434 1.92898.43164 3.21248.43164 3.85547 0 1.50033-.85945 2.57422-1.71679 2.57422-1.07166 0-1.71545-.6449-2.78711-4.07422-4.28665-12.64561-18.64671-21.85938-34.29297-21.85938-13.07429 0-22.50586 8.14141-22.50586 19.92969 0 5.14398 1.71522 9.64788 5.14453 13.50586 4.71531 5.35832 5.78847 5.78496 27.65039 13.07226 21.64758 7.2873 32.36626 18.64866 32.79492 34.29493 0 21.86192-17.79266 37.50781-42.22656 37.50781-9.85929 0-23.14941-3.21522-27.65039-6.64453-1.71466-1.286-1.92884-1.71354-3.21485-7.71485 1.71467-2.57199 3.21986-5.5716 4.50586-8.57226 1.50032 2.35766 3.21164 4.5007 5.14063 6.42969 6.21565 6.21564 16.29254 10.07226 25.9375 10.07226 15.8606 0 28.7168-10.93259 28.7168-24.43555 0-6.6443-3.21446-13.07272-8.78711-17.35937-3.21498-2.35765-6.42743-3.64313-21.85938-8.78711-15.00326-5.14397-21.43619-8.57538-27.4375-14.79102-4.71532-4.71532-7.49958-10.50218-8.14258-17.14648 2.78632-.643 4.92774-3.21326 4.92774-6.64258 0-.42866.00145-1.28822-.21289-2.57422l-1.28516-8.78711c5.78698-10.71662 18.43143-17.35937 34.7207-17.35937zm62.15625 2.35547c13.71728-.00001 22.50661 2.14509 29.36524 7.28906 6.85865 5.14398 10.7168 13.50102 10.7168 22.93164 0 13.07429-7.7193 23.36309-21.86524 30.65039l24.43555 35.57813c10.93096 16.71793 17.14893 21.86275 26.36523 21.64843.85733 0 1.49805.64607 1.49805 1.28907 0 1.71466-6.00362 3.42773-12.43359 3.42773-10.71662 0-18.43112-5.14549-27.21875-18.64844l-21.64649-33.22265c0-.21433-.42731-.85412-1.07031-1.92578-1.929-3.00066-3.00335-3.64649-6.86133-3.64649h-9.64648c-4.50097-.21434-4.9263.2142-5.14063 3.21484v27.00586 4.71875c-.42867 12.21695 3.64489 16.71791 16.07617 18.00391 2.14332.21434 3.21485.85412 3.21485 1.92578 0 1.07167-1.28875 1.7168-2.78907 1.7168-1.07166 0-2.99976-.21341-5.35742-.42774-2.14332-.42866-11.35782-.64453-19.71679-.64453-4.28665 0-8.78841.21587-11.78907.64453-1.71465.21438-3.8609.42774-4.5039.42774-1.71466 0-2.35742-.4308-2.35742-1.7168 0-1.07166.42987-1.28422 2.14453-1.71289 7.07297-2.14332 9.85802-4.07115 10.92968-11.78711 4.07232-6.21565 6.42969-13.71916 6.42969-22.07812 0-7.28732-1.92716-13.71837-5.78516-19.29102v-32.14844-1.5c1.286-1.28599 1.92969-3.00069 1.92969-4.92968 0-.42866.00145-1.28432-.21289-2.57032l-1.5039-9.43164c-1.28603-7.07296-1.28372-7.93182-1.49805-9.64648 0-1.71466-.21587-3.00061-.64453-4.07227h1.71679c4.50099 0 4.49959.00238 14.14454-.64062 4.50099-.21433 9.00189-.43164 13.07421-.43164zm144.03321 1.5039c1.50033 0 2.57031.85413 2.57031 1.92578 0 .85734-.4308 1.28763-1.7168 1.50196-8.14464 2.14333-9.00143 4.28695-8.78711 25.50586l-.21289 5.57226v57.01172c0 11.1453.00144 19.07672-.21289 24.2207v1.7129c0 3.85799-.64573 5.14453-2.78906 5.14453-1.28599 0-1.28594.00013-4.07227-3.21485l-73.94531-84.875c-1.07167-1.07168-1.28524-1.28515-2.14258-1.28515-1.28599 0-1.71289.8548-1.71289 3.85547v59.58593 3.21485c-1.50032-2.14332-3.00265-4.50078-4.93164-7.28711l-2.14258-3.21485v-51.86718-3.85938c.21434-1.50033.43164-3.21698.43164-4.93164 0-10.71662-4.71762-20.57435-12.43359-26.36133-1.07166-.64299-2.14318-1.49958-3.21484-2.14258 2.57199.21411 6.42876.21289 6.85742.21289h1.50195c1.28599-.21411 2.35896-.21289 3.00196-.21289 1.92899 0 2.99823.64134 4.71289 2.57032l80.58984 91.73632c1.28599 1.50032 1.9268 2.14258 2.35547 2.14258.85733.21434 1.07226-.42852 1.07226-3.21484v-42.00781c.42867-40.93751-1.06919-44.79664-17.7871-47.1543-1.929-.42866-2.57422-1.07338-2.57422-2.35938 0-1.07166.85954-1.71289 2.57422-1.71289l3.85546.21289c3.21499.21432 11.78962.64454 16.9336.64454 3.64366 0 5.78832-.21589 7.93164-.64454 1.92899-.21439 3.21545-.42578 4.28711-.42578zm-148.74805 4.5c-4.07231 0-6.64565 1.06855-7.93164 2.78321-1.07167 1.50034-1.07227 2.14517-1.07227 8.14648v35.57813c0 5.57264.42983 6.00245 6.2168 6.21679h9.85742c15.43194 0 24.64844-9.00157 24.64844-23.57617 0-8.14464-3.64177-16.71735-9.85742-21.86133-4.92965-4.50098-13.71669-7.28711-21.86133-7.28711z"/></svg>